<svg xmlns="http://www.w3.org/2000/svg" xmlns:xlink="http://www.w3.org/1999/xlink" width="135.435" height="71.72" viewBox="0 0 135.435 71.72">
  <defs>
    <clipPath id="clip-path">
      <rect id="Rectangle_1150" data-name="Rectangle 1150" width="135.435" height="55.484" fill="#fff"/>
    </clipPath>
  </defs>
  <g id="Group_11822" data-name="Group 11822" transform="translate(-156.251 -95.442)">
    <g id="Group_11821" data-name="Group 11821">
      <g id="Group_11820" data-name="Group 11820">
        <g id="Group_11819" data-name="Group 11819">
          <g id="Group_11818" data-name="Group 11818">
            <g id="Group_11109" data-name="Group 11109" transform="translate(156.251 95.442)">
              <g id="Group_11108" data-name="Group 11108" clip-path="url(#clip-path)">
                <path id="Path_1448" data-name="Path 1448" d="M80,3.3a5.8,5.8,0,0,1,1.662-2.2A5.8,5.8,0,0,1,84.984.01a5.956,5.956,0,0,1,3.583.906A5.691,5.691,0,0,1,90.8,7.168a8.187,8.187,0,0,1-.271.859c-.071.189-.149.375-.205.569a5.555,5.555,0,0,0,.045,2.7,4.353,4.353,0,0,0,1.11,2.033,4.448,4.448,0,0,0,1.986,1.109,7.223,7.223,0,0,1,2.266,1.1c.683.5,1.263,1.125,1.9,1.68a5.639,5.639,0,0,0,3.189,1.495,4.81,4.81,0,0,0,3.441-1,4.964,4.964,0,0,1,3.922-1.684,4.259,4.259,0,0,1,3.4,2.26,3.254,3.254,0,0,1,.352,1.5,3.7,3.7,0,0,1-1.062,2.747,4.161,4.161,0,0,1-5.126.244,9.083,9.083,0,0,1-1.1-.837,5.483,5.483,0,0,0-.961-.8,5.708,5.708,0,0,0-6.675.708l-.094.085a9.209,9.209,0,0,1-1.839,1.348,4.622,4.622,0,0,1-3.218.577,4.831,4.831,0,0,1-3.277-2.781,5.487,5.487,0,0,1-.506-2.553A7.291,7.291,0,0,1,88.339,17c.556-2.114-.156-4.286-2.463-4.842a15.314,15.314,0,0,1-2.555-.839A6.423,6.423,0,0,1,79.543,5.75,5.748,5.748,0,0,1,79.8,3.829q.086-.271.2-.532" transform="translate(-44.147 0)" fill="#fff"/>
                <path id="Path_1449" data-name="Path 1449" d="M90.77,59a4.393,4.393,0,1,1-4.393-4.393A4.393,4.393,0,0,1,90.77,59" transform="translate(-45.504 -30.311)" fill="#fff"/>
                <path id="Path_1450" data-name="Path 1450" d="M0,95.467a.781.781,0,0,1,.356-.575l2.45-2.107a.719.719,0,0,1,.451-.192.756.756,0,0,1,.534.3q.589.616,1.047,1.02a4.947,4.947,0,0,0,1.1.719,3.1,3.1,0,0,0,1.382.315q2.286,0,2.7-1.835a1.14,1.14,0,0,0,.014-.2,1.178,1.178,0,0,0-.643-1.027,9.751,9.751,0,0,0-1.656-.78A11.338,11.338,0,0,1,3.818,88.85a4.067,4.067,0,0,1-1.3-3.018,6.092,6.092,0,0,1,.137-1.164,6.549,6.549,0,0,1,1.383-2.854,6.681,6.681,0,0,1,2.648-1.888,9.707,9.707,0,0,1,3.7-.664,8.438,8.438,0,0,1,3.449.753,7.581,7.581,0,0,1,2.724,1.944.7.7,0,0,1,.178.438,1.076,1.076,0,0,1-.465.766l-2.121,1.957a.791.791,0,0,1-.465.205.9.9,0,0,1-.616-.356,3.314,3.314,0,0,0-.773-.616,8.057,8.057,0,0,0-1.061-.547,3.54,3.54,0,0,0-1.245-.192,3.487,3.487,0,0,0-1.512.315,1.4,1.4,0,0,0-.814,1,1.633,1.633,0,0,0-.027.232.912.912,0,0,0,.308.678,2.957,2.957,0,0,0,.849.534q.541.239,1.5.568A14.866,14.866,0,0,1,13,88.193a5.2,5.2,0,0,1,1.683,1.594,4.017,4.017,0,0,1,.6,2.231,6.434,6.434,0,0,1-.151,1.383,7.115,7.115,0,0,1-4.427,5.324,10.343,10.343,0,0,1-3.935.712,7.363,7.363,0,0,1-2.539-.452,8.676,8.676,0,0,1-2.258-1.218A8.347,8.347,0,0,1,.26,96.056,1.149,1.149,0,0,1,0,95.467" transform="translate(0 -43.994)" fill="#fff"/>
                <path id="Path_1451" data-name="Path 1451" d="M41.8,80.344a.67.67,0,0,1,.438-.158H46.17q.465,0,.465.4a1.115,1.115,0,0,1-.028.192L43.583,95.049h7.281q.479,0,.479.383a1.15,1.15,0,0,1-.028.192l-.752,3.5a.644.644,0,0,1-.685.575H38.1q-.479,0-.479-.383a1.129,1.129,0,0,1,.028-.192l3.9-18.353a.785.785,0,0,1,.26-.431" transform="translate(-20.878 -44.506)" fill="#fff"/>
                <path id="Path_1452" data-name="Path 1452" d="M78.149,80.186h3.928c.31,0,.465.132.465.4a1.205,1.205,0,0,1-.028.191l-3.9,18.353a.644.644,0,0,1-.685.575H74q-.493,0-.493-.4a1.194,1.194,0,0,1,.027-.178l3.9-18.353a.662.662,0,0,1,.712-.588" transform="translate(-40.801 -44.506)" fill="#fff"/>
                <path id="Path_1453" data-name="Path 1453" d="M98.6,80.186h6.337a8.188,8.188,0,0,1,4.119,1.074,8.043,8.043,0,0,1,3,2.977,8.308,8.308,0,0,1,1.116,4.284,10.809,10.809,0,0,1-2.266,6.521,12.115,12.115,0,0,1-9.5,4.66H94.457q-.493,0-.493-.4a1.188,1.188,0,0,1,.027-.178l3.9-18.353a.662.662,0,0,1,.712-.589m9.485,8.691a4.194,4.194,0,0,0-.514-2.074,3.652,3.652,0,0,0-1.451-1.444,4.432,4.432,0,0,0-2.183-.52h-1.833l-2.163,10.21h1.834a5.871,5.871,0,0,0,2.751-.684,6.791,6.791,0,0,0,2.232-1.855,6.261,6.261,0,0,0,1.218-2.553,5.977,5.977,0,0,0,.11-1.081" transform="translate(-52.153 -44.506)" fill="#fff"/>
                <path id="Path_1454" data-name="Path 1454" d="M144.739,80.186h13.07q.465,0,.465.4a1.2,1.2,0,0,1-.028.191l-.712,3.367a.651.651,0,0,1-.7.575h-8.567l-.684,3.243h6.5q.547,0,.547.424a1.148,1.148,0,0,1-.028.178l-.588,2.71a.682.682,0,0,1-.752.575h-6.5l-.725,3.353h8.813c.33,0,.493.141.493.424a.664.664,0,0,1-.014.151l-.726,3.353a.651.651,0,0,1-.7.575H140.591q-.492,0-.493-.4a1.287,1.287,0,0,1,.028-.178l3.9-18.353a.664.664,0,0,1,.713-.588" transform="translate(-77.759 -44.506)" fill="#fff"/>
                <path id="Path_1455" data-name="Path 1455" d="M192.593,93.591a.361.361,0,0,1,.343.233l1.478,3.161a.688.688,0,0,1,.1.315.39.39,0,0,1-.11.26,1.681,1.681,0,0,1-.342.274,14.068,14.068,0,0,1-2.745,1.307,9.251,9.251,0,0,1-3.018.472,8.428,8.428,0,0,1-4.283-1.1,7.789,7.789,0,0,1-2.977-3.032,8.863,8.863,0,0,1-1.074-4.373,10.683,10.683,0,0,1,.123-1.588,10.9,10.9,0,0,1,2.121-5.159,12.042,12.042,0,0,1,4.311-3.572,12.2,12.2,0,0,1,5.5-1.287,7.629,7.629,0,0,1,3,.562,7.482,7.482,0,0,1,2.285,1.478.426.426,0,0,1,.165.342.58.58,0,0,1-.137.356l-2.668,3.066a.532.532,0,0,1-.4.192.63.63,0,0,1-.41-.178,3.335,3.335,0,0,0-1.15-.753,4.053,4.053,0,0,0-1.437-.233,5.748,5.748,0,0,0-2.737.691,6.768,6.768,0,0,0-2.21,1.875,6.548,6.548,0,0,0-1.225,2.621,6.057,6.057,0,0,0-.124,1.191,4.307,4.307,0,0,0,.5,2.087,3.59,3.59,0,0,0,1.423,1.444,4.32,4.32,0,0,0,2.156.521A5.957,5.957,0,0,0,192,93.824a1.374,1.374,0,0,1,.589-.233" transform="translate(-99.884 -44.13)" fill="#fff"/>
                <path id="Path_1456" data-name="Path 1456" d="M227.184,80.186H230.4a.613.613,0,0,1,.656.588l3.271,18.353a.729.729,0,0,1,.013.151q0,.424-.493.424h-3.777a.606.606,0,0,1-.671-.575l-.369-2.573H221.86l-1.437,2.573a.968.968,0,0,1-.9.575h-4.051c-.255,0-.383-.082-.383-.246a.7.7,0,0,1,.123-.329l11.031-18.353a1.051,1.051,0,0,1,.944-.588m1.245,12.14-.849-5.967-3.339,5.967Z" transform="translate(-119.38 -44.506)" fill="#fff"/>
                <path id="Path_1457" data-name="Path 1457" d="M268.875,80.186h8.1a5.527,5.527,0,0,1,2.662.63,4.58,4.58,0,0,1,2.457,4.106,5.505,5.505,0,0,1-.082.931,5.359,5.359,0,0,1-.664,1.8,7.144,7.144,0,0,1-1.225,1.554,4.036,4.036,0,0,1,.835,1.533,6.53,6.53,0,0,1,.328,2.053,5.048,5.048,0,0,1-.1,1.013,7.871,7.871,0,0,1-1.361,3.052,7.183,7.183,0,0,1-2.4,2.094,6.144,6.144,0,0,1-2.949.752h-9.758c-.328,0-.493-.131-.493-.4a1.209,1.209,0,0,1,.027-.179l3.9-18.352a.662.662,0,0,1,.712-.589M270.052,95.8h3.655a2.118,2.118,0,0,0,1.06-.3,3.08,3.08,0,0,0,.917-.808,2.674,2.674,0,0,0,.513-1.081,2.107,2.107,0,0,0,.041-.424,1.905,1.905,0,0,0-.438-1.245,1.428,1.428,0,0,0-1.163-.534h-3.655Zm1.683-7.924h2.929a2.459,2.459,0,0,0,1.567-.534,2.373,2.373,0,0,0,.869-1.368,2.041,2.041,0,0,0,.041-.4A1.428,1.428,0,0,0,276.7,84.5a1.644,1.644,0,0,0-1.183-.424h-2.97Z" transform="translate(-146.659 -44.506)" fill="#fff"/>
              </g>
            </g>
            <path id="Path_1752" data-name="Path 1752" d="M2.318,2.539V1.053H4.553A3.848,3.848,0,0,0,6.011.793a3.174,3.174,0,0,0,1.1-.729,3.1,3.1,0,0,0,.689-1.1,3.937,3.937,0,0,0,.234-1.372A4.043,4.043,0,0,0,7.8-3.831a2.984,2.984,0,0,0-.689-1.084,3.112,3.112,0,0,0-1.1-.7,4.033,4.033,0,0,0-1.459-.248H2.318V-7.35h2.1a6.083,6.083,0,0,1,2.308.4A4.7,4.7,0,0,1,8.366-5.865a4.469,4.469,0,0,1,.977,1.539,4.991,4.991,0,0,1,.321,1.766v.294a4.9,4.9,0,0,1-.321,1.72,4.522,4.522,0,0,1-.977,1.552A4.881,4.881,0,0,1,6.727,2.117a5.826,5.826,0,0,1-2.308.422Zm-1.338,0V-7.35H2.586V2.539Zm10.544-.054V-7.35H13.13V2.485Zm5.995,0-3.1-4.3h1.82l3.2,4.3Zm-4.911-3.4V-2.265h2.542a1.983,1.983,0,0,0,.99-.234,1.59,1.59,0,0,0,.636-.649A2.02,2.02,0,0,0,17-4.112a1.991,1.991,0,0,0-.221-.95,1.634,1.634,0,0,0-.636-.656,1.939,1.939,0,0,0-.99-.241H12.608V-7.35h2.328a5.116,5.116,0,0,1,1.954.341,2.757,2.757,0,0,1,1.285,1.024,3.1,3.1,0,0,1,.455,1.753v.214a3.067,3.067,0,0,1-.462,1.753,2.762,2.762,0,0,1-1.285,1.017,5.155,5.155,0,0,1-1.947.335Zm8.444,3.4V-7.283h1.606V2.485Zm6.477,0L24.29-7.283h1.646L28.746,1.4l-.589-.294h1.525l-.642.294,2.6-8.684h1.606L30.218,2.485Zm7.4,0V-7.283h1.592V2.485Zm1.325,0V1.094H40.83V2.485Zm0-4.269V-3.175h4.2v1.392Zm0-4.108V-7.283h4.456v1.392ZM42.93,2.485V-7.35h1.606V2.485Zm5.995,0-3.1-4.3h1.82l3.2,4.3Zm-4.911-3.4V-2.265h2.542a1.983,1.983,0,0,0,.99-.234,1.59,1.59,0,0,0,.636-.649,2.021,2.021,0,0,0,.221-.963,1.991,1.991,0,0,0-.221-.95,1.634,1.634,0,0,0-.636-.656,1.939,1.939,0,0,0-.99-.241H44.014V-7.35h2.328a5.116,5.116,0,0,1,1.954.341,2.757,2.757,0,0,1,1.285,1.024,3.1,3.1,0,0,1,.455,1.753v.214a3.067,3.067,0,0,1-.462,1.753A2.762,2.762,0,0,1,48.29-1.248a5.155,5.155,0,0,1-1.947.335ZM54.4,2.485l3.426-9.768h2.663l3.533,9.768H62.36l-3.091-8.7.656.308H58.306l.7-.308-3,8.7ZM56.62-.271l.508-1.392h4.095l.522,1.392ZM66.977-.713V-2.118h2.034a2.075,2.075,0,0,0,1.064-.248,1.678,1.678,0,0,0,.649-.682,2.09,2.09,0,0,0,.227-.984,2.119,2.119,0,0,0-.227-1,1.634,1.634,0,0,0-.649-.676,2.121,2.121,0,0,0-1.064-.241H66.977V-7.35h1.847a4.793,4.793,0,0,1,2.054.395,2.877,2.877,0,0,1,1.271,1.111,3.224,3.224,0,0,1,.435,1.706v.214a3.232,3.232,0,0,1-.435,1.7,2.864,2.864,0,0,1-1.271,1.117,4.793,4.793,0,0,1-2.054.395Zm-1.338,3.2V-7.35h1.606V2.485Zm10.023-3.2V-2.118H77.7a2.075,2.075,0,0,0,1.064-.248,1.678,1.678,0,0,0,.649-.682,2.09,2.09,0,0,0,.227-.984,2.119,2.119,0,0,0-.227-1,1.634,1.634,0,0,0-.649-.676A2.121,2.121,0,0,0,77.7-5.945H75.661V-7.35h1.847a4.793,4.793,0,0,1,2.054.395,2.877,2.877,0,0,1,1.271,1.111,3.224,3.224,0,0,1,.435,1.706v.214a3.232,3.232,0,0,1-.435,1.7,2.864,2.864,0,0,1-1.271,1.117,4.793,4.793,0,0,1-2.054.395Zm-1.338,3.2V-7.35h1.606V2.485Z" transform="translate(156.246 164.624)" fill="#fff"/>
          </g>
        </g>
      </g>
    </g>
  </g>
</svg>
